<svg width="824" height="824" viewBox="0 0 824 824" fill="none" xmlns="http://www.w3.org/2000/svg">
<g clip-path="url(#clip0_42_122)">
<path d="M718.359 0H105.641C47.2971 0 0 47.2971 0 105.641V718.359C0 776.703 47.2971 824 105.641 824H718.359C776.703 824 824 776.703 824 718.359V105.641C824 47.2971 776.703 0 718.359 0Z" fill="#EFF4E0"/>
<path d="M577.064 302.389C577.064 157.232 429.472 164.858 429.472 164.858L430.223 164.965C424.436 164.603 418.64 164.417 412.842 164.404H412.71C412.71 164.404 404.77 164.412 392.935 165.263C383.576 164.956 246.936 162.992 246.936 303.181C246.936 365.509 294.491 440.012 348.715 504.758C309.199 542.071 278.951 566.888 278.951 566.888L319.358 658.821C319.358 658.821 361.457 624.297 411.612 573.606C462.113 624.735 504.642 659.596 504.642 659.596L545.067 567.68C545.067 567.68 514.431 542.582 474.51 504.914C529.064 439.945 577.064 365.031 577.064 302.389ZM524.863 277.076C508.315 328.511 460.619 389.263 411.522 441.827C361.63 388.428 313.234 326.686 297.462 274.848C315.8 252.342 359.344 236.48 410.283 236.48C462.881 236.48 507.655 253.39 524.863 277.076Z" fill="#B1CA8A"/>
</g>
<defs>
<clipPath id="clip0_42_122">
<rect width="824" height="824" fill="white"/>
</clipPath>
</defs>
</svg>
