<svg width="824" height="824" viewBox="0 0 824 824" fill="none" xmlns="http://www.w3.org/2000/svg">
<g clip-path="url(#clip0_42_112)">
<path d="M718.359 0H105.641C47.2971 0 0 47.2971 0 105.641V718.359C0 776.703 47.2971 824 105.641 824H718.359C776.703 824 824 776.703 824 718.359V105.641C824 47.2971 776.703 0 718.359 0Z" fill="#EFF4E0"/>
<mask id="mask0_42_112" style="mask-type:luminance" maskUnits="userSpaceOnUse" x="200" y="200" width="424" height="424">
<path d="M623.282 200.718H200.718V623.282H623.282V200.718Z" fill="white"/>
</mask>
<g mask="url(#mask0_42_112)">
<path fill-rule="evenodd" clip-rule="evenodd" d="M505.924 207.989C508.149 208.625 510.226 209.693 512.037 211.132C513.848 212.571 515.359 214.352 516.481 216.375C517.604 218.397 518.317 220.622 518.579 222.919C518.842 225.218 518.648 227.545 518.011 229.769C514.754 241.152 515.661 257.658 519.543 279.957C520.687 286.56 522.044 293.4 523.513 300.496C537.15 303.313 549.686 305.69 561.104 306.966C575.392 308.577 586.264 308.278 594.24 305.998C596.473 305.329 598.817 305.11 601.136 305.354C603.455 305.598 605.701 306.301 607.746 307.42C609.791 308.539 611.593 310.054 613.049 311.876C614.504 313.697 615.583 315.79 616.223 318.031C616.863 320.273 617.051 322.619 616.777 324.935C616.503 327.249 615.772 329.487 614.626 331.517C613.48 333.548 611.943 335.331 610.103 336.762C608.263 338.194 606.156 339.245 603.906 339.856C589.38 344.012 573.103 343.756 557.169 341.968C548.511 340.941 539.892 339.598 531.331 337.946C532.27 342.647 533.162 347.377 534.008 352.136C542.908 402.193 547.177 462.074 504.63 504.629C462.99 546.27 404.799 543.056 355.58 534.614C351.045 533.754 347.028 531.149 344.396 527.358C341.763 523.566 340.725 518.893 341.503 514.344C342.283 509.794 344.817 505.732 348.561 503.033C352.305 500.334 356.96 499.213 361.522 499.911C410.381 508.274 451.677 507.782 479.725 479.734C508.433 451.016 508.248 408.461 499.339 358.299C497.174 346.106 494.586 333.931 492.006 321.765L491.953 321.536C489.409 309.555 486.847 297.503 484.849 285.988C480.931 263.477 478.502 239.893 484.153 220.095C484.787 217.869 485.853 215.79 487.292 213.976C488.73 212.163 490.511 210.651 492.534 209.526C494.557 208.402 496.781 207.688 499.081 207.424C501.379 207.161 503.699 207.352 505.924 207.989ZM414.254 334.09C416.298 332.046 418.725 330.424 421.395 329.317C424.066 328.211 426.928 327.641 429.819 327.641C432.709 327.641 435.571 328.211 438.242 329.317C440.912 330.424 443.339 332.046 445.383 334.09L489.919 378.635C492.022 380.665 493.698 383.093 494.852 385.779C496.005 388.464 496.613 391.352 496.638 394.274C496.663 397.197 496.107 400.094 495 402.8C493.894 405.504 492.259 407.961 490.193 410.028C488.126 412.094 485.668 413.728 482.964 414.835C480.26 415.941 477.361 416.498 474.439 416.473C471.517 416.447 468.628 415.841 465.943 414.687C463.259 413.534 460.83 411.857 458.8 409.755L414.254 365.209C410.129 361.083 407.811 355.485 407.811 349.65C407.811 343.814 410.129 338.217 414.254 334.09ZM351.899 351.908C356.027 347.782 361.624 345.464 367.459 345.464C373.296 345.464 378.893 347.782 383.02 351.908L472.11 440.99C476.207 445.124 478.5 450.712 478.486 456.533C478.473 462.353 476.154 467.932 472.038 472.046C467.922 476.161 462.343 478.478 456.523 478.49C450.702 478.502 445.115 476.208 440.981 472.11L351.891 383.028C347.765 378.901 345.447 373.304 345.447 367.468C345.447 361.632 347.774 356.036 351.899 351.908ZM365.202 414.263C361.073 410.134 355.475 407.816 349.638 407.816C343.8 407.816 338.201 410.134 334.072 414.263C329.945 418.39 327.626 423.989 327.626 429.827C327.626 432.717 328.195 435.58 329.302 438.251C330.408 440.921 332.028 443.348 334.072 445.391L378.618 489.937C382.752 494.033 388.341 496.326 394.161 496.312C399.982 496.299 405.56 493.981 409.674 489.865C413.789 485.748 416.107 480.169 416.119 474.349C416.13 468.529 413.837 462.941 409.738 458.807L365.202 414.263ZM229.761 518.011C237.737 515.731 248.609 515.431 262.888 517.042C274.316 518.328 286.851 520.687 300.488 523.513C301.958 530.608 303.304 537.449 304.45 544.051C308.332 566.35 309.238 582.856 305.99 594.231C305.354 596.453 305.163 598.781 305.426 601.077C305.689 603.375 306.402 605.598 307.525 607.62C308.647 609.642 310.156 611.422 311.967 612.861C313.778 614.298 315.854 615.365 318.077 616.001C320.3 616.637 322.626 616.83 324.924 616.565C327.222 616.302 329.444 615.589 331.465 614.467C333.487 613.344 335.268 611.835 336.706 610.024C338.145 608.213 339.212 606.138 339.848 603.915C345.5 584.116 343.07 560.531 339.143 538.012C337.146 526.506 334.592 514.454 332.048 502.473L331.996 502.244C329.349 490.107 326.905 477.927 324.662 465.71C315.744 415.547 315.559 372.984 344.276 344.276C372.324 316.228 413.62 315.726 462.479 324.098C464.777 324.533 467.138 324.507 469.425 324.02C471.712 323.532 473.88 322.595 475.8 321.261C477.721 319.927 479.356 318.225 480.612 316.251C481.867 314.279 482.717 312.075 483.112 309.77C483.507 307.466 483.438 305.105 482.911 302.827C482.383 300.549 481.407 298.399 480.04 296.502C478.672 294.605 476.94 293 474.946 291.779C472.951 290.559 470.733 289.749 468.421 289.395C419.211 280.952 361.011 277.739 319.38 319.379C276.815 361.935 281.085 421.816 289.994 471.872C290.839 476.626 291.732 481.356 292.671 486.063C284.108 484.414 275.49 483.074 266.832 482.048C250.898 480.253 234.621 479.998 220.086 484.153C215.596 485.437 211.8 488.452 209.533 492.535C207.267 496.617 206.715 501.434 207.999 505.923C209.283 510.413 212.298 514.21 216.381 516.476C220.464 518.743 225.272 519.295 229.761 518.011ZM534.483 249.506C536.526 247.462 538.953 245.84 541.623 244.734C544.294 243.628 547.157 243.058 550.047 243.058C552.937 243.058 555.8 243.628 558.471 244.734C561.141 245.84 563.568 247.462 565.611 249.506L574.521 258.416C578.648 262.543 580.967 268.142 580.967 273.98C580.967 279.818 578.648 285.417 574.521 289.544C570.392 293.673 564.793 295.991 558.956 295.991C553.118 295.991 547.519 293.673 543.392 289.544L534.483 280.635C532.438 278.591 530.816 276.165 529.71 273.495C528.604 270.824 528.035 267.962 528.035 265.071C528.035 262.18 528.604 259.318 529.71 256.647C530.816 253.977 532.438 251.55 534.483 249.506ZM280.636 534.473C278.592 532.43 276.165 530.808 273.495 529.702C270.824 528.596 267.962 528.027 265.072 528.027C262.181 528.027 259.319 528.596 256.648 529.702C253.978 530.808 251.551 532.43 249.507 534.473C247.463 536.517 245.842 538.944 244.736 541.614C243.629 544.285 243.061 547.147 243.061 550.038C243.061 552.928 243.629 555.79 244.736 558.461C245.842 561.131 247.463 563.558 249.507 565.602L258.417 574.511C262.544 578.639 268.143 580.958 273.981 580.958C279.818 580.958 285.417 578.639 289.545 574.511C293.673 570.383 295.992 564.784 295.992 558.947C295.992 553.109 293.673 547.51 289.545 543.383L280.636 534.473Z" fill="#B1CA8A"/>
</g>
</g>
<defs>
<clipPath id="clip0_42_112">
<rect width="824" height="824" fill="white"/>
</clipPath>
</defs>
</svg>
