<svg width="824" height="824" viewBox="0 0 824 824" fill="none" xmlns="http://www.w3.org/2000/svg">
<g clip-path="url(#clip0_42_125)">
<path d="M718.359 0H105.641C47.2971 0 0 47.2971 0 105.641V718.359C0 776.703 47.2971 824 105.641 824H718.359C776.703 824 824 776.703 824 718.359V105.641C824 47.2971 776.703 0 718.359 0Z" fill="#EFF4E0"/>
<path d="M347.199 389.997L350.236 380.93L350.677 379.565C354.858 367.24 360.03 351.834 363.507 337.132C366.72 323.663 370.748 302.403 365.334 282.331C361.831 268.688 353.761 256.656 342.467 248.239C329.636 238.798 315.242 235.938 302.852 235.938C251.11 235.938 223.621 279.822 211.846 305.462C198.575 334.294 191.929 367.548 191.929 387.994C191.929 409.342 199.301 437.887 208.787 460.293C213.673 471.847 220.32 484.722 229.078 495.506C236.386 504.508 253.244 522.048 279.544 522.048C289.294 522.048 300.079 519.716 310.07 513.377C318.541 507.939 325.426 500.362 330.032 491.412C336.854 478.339 338.219 464.1 338.792 456.242C339.231 450.389 339.408 443.082 339.584 436.875L339.672 434.015C346.935 434.015 352.546 434.036 356.993 434.168V566.066C356.995 571.902 359.317 577.499 363.446 581.625C367.576 585.75 373.175 588.066 379.012 588.063C384.849 588.06 390.446 585.738 394.571 581.609C398.697 577.479 401.012 571.88 401.009 566.044V428.27C401.009 424.968 401.054 418.74 399.469 413.172C398.222 408.725 395.942 404.637 392.813 401.239C389.683 397.843 385.796 395.235 381.466 393.628C374.974 391.119 367.535 390.547 361.373 390.283C356.649 390.11 351.924 390.022 347.199 390.019M484.356 434.015C477.071 434.015 471.459 434.036 467.035 434.168V566.066C467.033 571.902 464.711 577.499 460.581 581.625C456.452 585.75 450.853 588.066 445.016 588.063C439.178 588.06 433.582 585.738 429.456 581.609C425.331 577.479 423.015 571.88 423.018 566.044V428.27C423.018 424.968 422.974 418.74 424.559 413.172C425.805 408.725 428.086 404.637 431.215 401.239C434.344 397.843 438.232 395.235 442.562 393.628C449.033 391.119 456.493 390.547 462.656 390.283C466.661 390.137 471.378 390.049 476.807 390.019L473.769 380.93L473.33 379.565C469.17 367.24 463.977 351.834 460.499 337.132C457.285 323.663 453.28 302.403 458.694 282.331C462.19 268.692 470.253 256.66 481.539 248.239C494.369 238.798 508.785 235.938 521.176 235.938C572.918 235.938 600.407 279.822 612.181 305.462C625.453 334.294 632.078 367.571 632.078 387.994C632.078 409.342 624.704 437.887 615.219 460.293C610.333 471.847 603.687 484.722 594.927 495.506C587.642 504.508 570.762 522.048 544.506 522.048C534.734 522.048 523.971 519.716 513.957 513.377C505.487 507.939 498.602 500.362 493.995 491.412C487.173 478.339 485.831 464.1 485.258 456.242C484.787 448.841 484.493 441.429 484.378 434.015" fill="#B1CA8A"/>
</g>
<defs>
<clipPath id="clip0_42_125">
<rect width="824" height="824" fill="white"/>
</clipPath>
</defs>
</svg>
