<svg width="78" height="78" viewBox="0 0 78 78" fill="none" xmlns="http://www.w3.org/2000/svg">
<rect width="78" height="78" rx="10" fill="#EFF4E0"/>
<g clip-path="url(#clip0_42_111)">
<path fill-rule="evenodd" clip-rule="evenodd" d="M47.8909 19.6883C48.1015 19.7485 48.2981 19.8496 48.4696 19.9858C48.641 20.122 48.784 20.2906 48.8902 20.4821C48.9965 20.6735 49.064 20.8841 49.0888 21.1016C49.1137 21.3192 49.0954 21.5395 49.0351 21.75C48.7268 22.8275 48.8126 24.39 49.1801 26.5008C49.2884 27.1258 49.4168 27.7733 49.5559 28.445C50.8468 28.7117 52.0334 28.9367 53.1143 29.0575C54.4668 29.21 55.4959 29.1817 56.2509 28.9658C56.4623 28.9025 56.6842 28.8818 56.9037 28.9049C57.1232 28.928 57.3358 28.9945 57.5294 29.1004C57.723 29.2064 57.8936 29.3498 58.0314 29.5222C58.1691 29.6946 58.2712 29.8927 58.3318 30.1049C58.3924 30.3171 58.4102 30.5392 58.3843 30.7584C58.3583 30.9775 58.2891 31.1893 58.1807 31.3815C58.0722 31.5737 57.9267 31.7425 57.7525 31.878C57.5783 32.0135 57.3789 32.113 57.1659 32.1708C55.7909 32.5642 54.2501 32.54 52.7418 32.3708C51.9222 32.2735 51.1063 32.1464 50.2959 31.99C50.3848 32.435 50.4693 32.8828 50.5493 33.3333C51.3918 38.0717 51.7959 43.74 47.7684 47.7683C43.8268 51.71 38.3184 51.4058 33.6593 50.6067C33.23 50.5253 32.8498 50.2787 32.6006 49.9198C32.3514 49.5609 32.2531 49.1185 32.3268 48.6879C32.4006 48.2572 32.6405 47.8727 32.9949 47.6172C33.3493 47.3617 33.7899 47.2556 34.2218 47.3217C38.8468 48.1133 42.7559 48.0667 45.4109 45.4117C48.1284 42.6933 48.1109 38.665 47.2676 33.9167C47.0626 32.7625 46.8176 31.61 46.5734 30.4583L46.5684 30.4367C46.3276 29.3025 46.0851 28.1617 45.8959 27.0717C45.5251 24.9408 45.2951 22.7083 45.8301 20.8342C45.8901 20.6235 45.991 20.4267 46.1272 20.255C46.2633 20.0834 46.4319 19.9403 46.6234 19.8338C46.8149 19.7274 47.0254 19.6598 47.2431 19.6348C47.4607 19.6099 47.6803 19.628 47.8909 19.6883ZM39.2134 31.625C39.4069 31.4315 39.6366 31.278 39.8894 31.1732C40.1422 31.0685 40.4131 31.0146 40.6868 31.0146C40.9604 31.0146 41.2313 31.0685 41.4841 31.1732C41.7369 31.278 41.9666 31.4315 42.1601 31.625L46.3759 35.8417C46.5749 36.0338 46.7336 36.2637 46.8428 36.5179C46.952 36.7721 47.0095 37.0455 47.0119 37.3221C47.0143 37.5987 46.9616 37.873 46.8568 38.1291C46.7521 38.3851 46.5974 38.6177 46.4018 38.8133C46.2061 39.0089 45.9735 39.1636 45.7175 39.2684C45.4615 39.3731 45.1871 39.4258 44.9105 39.4234C44.6339 39.421 44.3605 39.3636 44.1063 39.2544C43.8522 39.1452 43.6223 38.9865 43.4301 38.7875L39.2134 34.5708C38.8229 34.1802 38.6035 33.6503 38.6035 33.0979C38.6035 32.5455 38.8229 32.0157 39.2134 31.625ZM33.3109 33.3117C33.7016 32.9211 34.2314 32.7017 34.7838 32.7017C35.3363 32.7017 35.8661 32.9211 36.2568 33.3117L44.6901 41.7442C45.0779 42.1355 45.2949 42.6645 45.2936 43.2155C45.2924 43.7664 45.0729 44.2945 44.6832 44.684C44.2936 45.0735 43.7655 45.2928 43.2146 45.294C42.6636 45.2951 42.1347 45.0779 41.7434 44.69L33.3101 36.2575C32.9195 35.8668 32.7001 35.337 32.7001 34.7846C32.7001 34.2322 32.9204 33.7024 33.3109 33.3117ZM34.5701 39.2142C34.1793 38.8234 33.6494 38.6039 33.0968 38.6039C32.5442 38.6039 32.0142 38.8234 31.6234 39.2142C31.2327 39.6049 31.0132 40.1349 31.0132 40.6875C31.0132 40.9611 31.067 41.2321 31.1718 41.4849C31.2765 41.7377 31.4299 41.9674 31.6234 42.1608L35.8401 46.3775C36.2314 46.7653 36.7605 46.9823 37.3114 46.981C37.8624 46.9798 38.3904 46.7603 38.7799 46.3707C39.1694 45.981 39.3888 45.4529 39.3899 44.902C39.391 44.351 39.1739 43.8221 38.7859 43.4308L34.5701 39.2142ZM21.7493 49.035C22.5043 48.8192 23.5334 48.7908 24.8851 48.9433C25.9668 49.065 27.1534 49.2883 28.4443 49.5558C28.5834 50.2275 28.7109 50.875 28.8193 51.5C29.1868 53.6108 29.2726 55.1733 28.9651 56.25C28.9049 56.4604 28.8868 56.6807 28.9117 56.8981C28.9366 57.1156 29.0041 57.326 29.1104 57.5174C29.2166 57.7088 29.3595 57.8773 29.5309 58.0135C29.7023 58.1496 29.8988 58.2506 30.1093 58.3108C30.3197 58.371 30.5399 58.3892 30.7574 58.3642C30.9749 58.3393 31.1853 58.2718 31.3766 58.1656C31.568 58.0593 31.7366 57.9164 31.8727 57.745C32.0089 57.5736 32.1099 57.3771 32.1701 57.1667C32.7051 55.2925 32.4751 53.06 32.1034 50.9283C31.9143 49.8392 31.6726 48.6983 31.4318 47.5642L31.4268 47.5425C31.1763 46.3936 30.9449 45.2407 30.7326 44.0842C29.8884 39.3358 29.8709 35.3067 32.5893 32.5892C35.2443 29.9342 39.1534 29.8867 43.7784 30.6792C43.9959 30.7204 44.2194 30.7179 44.4359 30.6718C44.6524 30.6256 44.8576 30.5369 45.0394 30.4106C45.2212 30.2844 45.376 30.1232 45.4949 29.9364C45.6137 29.7497 45.6941 29.5411 45.7315 29.3229C45.7689 29.1048 45.7624 28.8813 45.7125 28.6657C45.6625 28.45 45.5701 28.2465 45.4407 28.0669C45.3112 27.8874 45.1473 27.7354 44.9585 27.6199C44.7697 27.5044 44.5597 27.4277 44.3409 27.3942C39.6826 26.595 34.1734 26.2908 30.2326 30.2325C26.2034 34.2608 26.6076 39.9292 27.4509 44.6675C27.5309 45.1175 27.6154 45.5653 27.7043 46.0108C26.8938 45.8547 26.078 45.7279 25.2584 45.6308C23.7501 45.4608 22.2093 45.4367 20.8334 45.83C20.4084 45.9516 20.0491 46.237 19.8345 46.6235C19.62 47.0099 19.5677 47.4658 19.6893 47.8908C19.8108 48.3158 20.0962 48.6752 20.4827 48.8897C20.8692 49.1043 21.3243 49.1566 21.7493 49.035ZM50.5943 23.6183C50.7877 23.4248 51.0174 23.2713 51.2702 23.1666C51.523 23.0619 51.794 23.0079 52.0676 23.0079C52.3412 23.0079 52.6122 23.0619 52.865 23.1666C53.1178 23.2713 53.3475 23.4248 53.5409 23.6183L54.3843 24.4617C54.775 24.8524 54.9945 25.3824 54.9945 25.935C54.9945 26.4876 54.775 27.0176 54.3843 27.4083C53.9935 27.7991 53.4635 28.0186 52.9109 28.0186C52.3583 28.0186 51.8283 27.7991 51.4376 27.4083L50.5943 26.565C50.4007 26.3715 50.2472 26.1418 50.1425 25.8891C50.0378 25.6363 49.9839 25.3653 49.9839 25.0917C49.9839 24.818 50.0378 24.5471 50.1425 24.2943C50.2472 24.0415 50.4007 23.8118 50.5943 23.6183ZM26.5651 50.5933C26.3716 50.3999 26.1419 50.2464 25.8891 50.1417C25.6363 50.037 25.3654 49.9831 25.0918 49.9831C24.8181 49.9831 24.5472 50.037 24.2944 50.1417C24.0416 50.2464 23.8119 50.3999 23.6184 50.5933C23.4249 50.7868 23.2715 51.0165 23.1668 51.2693C23.062 51.5221 23.0082 51.793 23.0082 52.0667C23.0082 52.3403 23.062 52.6112 23.1668 52.864C23.2715 53.1168 23.4249 53.3465 23.6184 53.54L24.4618 54.3833C24.8525 54.7741 25.3825 54.9936 25.9351 54.9936C26.4877 54.9936 27.0177 54.7741 27.4084 54.3833C27.7992 53.9926 28.0187 53.4626 28.0187 52.91C28.0187 52.3574 27.7992 51.8274 27.4084 51.4367L26.5651 50.5933Z" fill="#B1CA8A"/>
</g>
<defs>
<clipPath id="clip0_42_111">
<rect width="40" height="40" fill="white" transform="translate(19 19)"/>
</clipPath>
</defs>
</svg>
