<svg width="78" height="78" viewBox="0 0 78 78" fill="none" xmlns="http://www.w3.org/2000/svg">
<rect width="78" height="78" rx="10" fill="#EFF4E0"/>
<path d="M47.5941 19.2604C51.0663 19.2604 53.9746 20.5452 56.3191 23.1146C58.6635 25.684 59.8351 28.7396 59.8337 32.2813C59.8337 32.9063 59.7989 33.5229 59.7295 34.1313C59.6601 34.7396 59.5385 35.3382 59.3649 35.9271H46.3441L42.8545 30.6146H39.1045L36.292 39.5729L33.8441 35.9271H18.6357C18.4621 35.3368 18.3406 34.7382 18.2712 34.1313C18.2017 33.5243 18.167 32.925 18.167 32.3334C18.167 28.757 19.3302 25.684 21.6566 23.1146C23.983 20.5452 26.8823 19.2604 30.3545 19.2604C32.0212 19.2604 33.5927 19.5903 35.0691 20.25C36.5455 20.9097 37.8559 21.8299 39.0003 23.0104C40.1114 21.8299 41.4052 20.9097 42.8816 20.25C44.358 19.5903 45.9288 19.2604 47.5941 19.2604ZM38.9482 58.7396L21.7087 41.3959C21.5003 41.1875 21.3094 40.9792 21.1357 40.7709C20.9621 40.5625 20.7885 40.3368 20.6149 40.0938H31.6045L35.1982 45.4584H38.8962L41.7087 36.4479L44.1045 40.0938H57.3337L56.8128 40.7188L56.292 41.3438L38.9482 58.7396Z" fill="#B1CA8A"/>
</svg>
