<svg width="78" height="78" viewBox="0 0 78 78" fill="none" xmlns="http://www.w3.org/2000/svg">
<rect width="78" height="78" rx="10" fill="#EFF4E0"/>
<path d="M54.625 28.6242C54.625 14.8836 40.6539 15.6055 40.6539 15.6055L40.725 15.6156C40.1772 15.5814 39.6285 15.5637 39.0797 15.5625H39.0672C39.0672 15.5625 38.3156 15.5633 37.1953 15.6438C36.3094 15.6148 23.375 15.4289 23.375 28.6992C23.375 34.5992 27.8766 41.6516 33.0094 47.7805C29.2688 51.3125 26.4055 53.6617 26.4055 53.6617L30.2305 62.3641C30.2305 62.3641 34.2156 59.0961 38.9633 54.2977C43.7437 59.1375 47.7695 62.4375 47.7695 62.4375L51.5961 53.7367C51.5961 53.7367 48.6961 51.3609 44.9172 47.7953C50.0813 41.6453 54.625 34.5539 54.625 28.6242ZM49.6836 26.2281C48.1172 31.0969 43.6023 36.8477 38.9547 41.8234C34.232 36.7687 29.6508 30.9242 28.1578 26.0172C29.8937 23.8867 34.0156 22.3852 38.8375 22.3852C43.8164 22.3852 48.0547 23.9859 49.6836 26.2281Z" fill="#B1CA8A"/>
</svg>
