<svg width="824" height="824" viewBox="0 0 824 824" fill="none" xmlns="http://www.w3.org/2000/svg">
<g clip-path="url(#clip0_42_119)">
<path d="M718.359 0H105.641C47.2971 0 0 47.2971 0 105.641V718.359C0 776.703 47.2971 824 105.641 824H718.359C776.703 824 824 776.703 824 718.359V105.641C824 47.2971 776.703 0 718.359 0Z" fill="#EFF4E0"/>
<path d="M502.789 203.469C539.47 203.469 570.193 217.042 594.961 244.185C619.727 271.328 632.104 303.608 632.089 341.023C632.089 347.626 631.722 354.139 630.988 360.567C630.255 366.993 628.971 373.316 627.137 379.538H489.584L452.719 323.416H413.104L383.392 418.052L357.532 379.538H196.869C195.035 373.302 193.752 366.978 193.019 360.567C192.285 354.154 191.918 347.823 191.918 341.573C191.918 303.792 204.206 271.328 228.782 244.185C253.359 217.042 283.987 203.469 320.668 203.469C338.275 203.469 354.877 206.954 370.473 213.923C386.07 220.892 399.914 230.613 412.003 243.084C423.741 230.613 437.409 220.892 453.006 213.923C468.602 206.954 485.196 203.469 502.789 203.469ZM411.453 620.531L229.333 437.311C227.131 435.109 225.115 432.909 223.28 430.708C221.446 428.506 219.612 426.122 217.778 423.555H333.873L371.837 480.227H410.903L440.615 385.039L465.924 423.555H605.679L600.176 430.158L594.674 436.76L411.453 620.531Z" fill="#B1CA8A"/>
</g>
<defs>
<clipPath id="clip0_42_119">
<rect width="824" height="824" fill="white"/>
</clipPath>
</defs>
</svg>
