<svg width="78" height="78" viewBox="0 0 78 78" fill="none" xmlns="http://www.w3.org/2000/svg">
<rect width="78" height="78" rx="10" fill="#EFF4E0"/>
<path d="M32.8659 36.9172L33.1534 36.0589L33.1951 35.9297C33.5909 34.763 34.0805 33.3047 34.4096 31.913C34.7138 30.638 35.0951 28.6255 34.5826 26.7255C34.251 25.4341 33.4871 24.2951 32.418 23.4984C31.2034 22.6047 29.8409 22.3339 28.668 22.3339C23.7701 22.3339 21.168 26.488 20.0534 28.9151C18.7971 31.6443 18.168 34.7922 18.168 36.7276C18.168 38.7484 18.8659 41.4505 19.7638 43.5714C20.2263 44.6651 20.8555 45.8839 21.6846 46.9047C22.3763 47.7568 23.9721 49.4172 26.4617 49.4172C27.3846 49.4172 28.4055 49.1964 29.3513 48.5964C30.1531 48.0816 30.8049 47.3644 31.2409 46.5172C31.8867 45.2797 32.0159 43.9318 32.0701 43.188C32.1117 42.6339 32.1284 41.9422 32.1451 41.3547L32.1534 41.0839C32.8409 41.0839 33.3721 41.0859 33.793 41.0984V53.5839C33.7932 54.1364 34.013 54.6662 34.4039 55.0567C34.7948 55.4472 35.3248 55.6664 35.8773 55.6662C36.4299 55.6659 36.9597 55.4461 37.3502 55.0552C37.7407 54.6643 37.9599 54.1343 37.9596 53.5818V40.5401C37.9596 40.2276 37.9638 39.638 37.8138 39.1109C37.6958 38.69 37.4799 38.303 37.1837 37.9814C36.8875 37.6599 36.5195 37.413 36.1096 37.2609C35.4951 37.0234 34.7909 36.9693 34.2076 36.9443C33.7605 36.9279 33.3132 36.9196 32.8659 36.9193M45.8492 41.0839C45.1596 41.0839 44.6284 41.0859 44.2096 41.0984V53.5839C44.2094 54.1364 43.9896 54.6662 43.5987 55.0567C43.2078 55.4472 42.6778 55.6664 42.1253 55.6662C41.5727 55.6659 41.0429 55.4461 40.6524 55.0552C40.2619 54.6643 40.0427 54.1343 40.043 53.5818V40.5401C40.043 40.2276 40.0388 39.638 40.1888 39.1109C40.3068 38.69 40.5227 38.303 40.8189 37.9814C41.1151 37.6599 41.4831 37.413 41.893 37.2609C42.5055 37.0234 43.2117 36.9693 43.7951 36.9443C44.1742 36.9304 44.6207 36.9221 45.1346 36.9193L44.8471 36.0589L44.8055 35.9297C44.4117 34.763 43.9201 33.3047 43.5909 31.913C43.2867 30.638 42.9076 28.6255 43.4201 26.7255C43.751 25.4344 44.5142 24.2955 45.5826 23.4984C46.7971 22.6047 48.1617 22.3339 49.3346 22.3339C54.2325 22.3339 56.8346 26.488 57.9492 28.9151C59.2055 31.6443 59.8326 34.7943 59.8326 36.7276C59.8326 38.7484 59.1346 41.4505 58.2367 43.5714C57.7742 44.6651 57.1451 45.8839 56.3159 46.9047C55.6263 47.7568 54.0284 49.4172 51.543 49.4172C50.618 49.4172 49.5992 49.1964 48.6513 48.5964C47.8495 48.0816 47.1978 47.3644 46.7617 46.5172C46.1159 45.2797 45.9888 43.9318 45.9346 43.188C45.89 42.4874 45.8622 41.7858 45.8513 41.0839" fill="#B1CA8A"/>
</svg>
