<svg width="830" height="868" viewBox="0 0 830 868" fill="none" xmlns="http://www.w3.org/2000/svg">
<path d="M58.721 377.602C56.3724 374.851 53.882 371.096 51.3367 366.471C-43.9174 217.554 13.5758 86.8825 62.2481 46.6021C120.248 -1.39786 219.792 -19.6028 312.693 44.0323C368.642 82.3559 393.765 126.051 401.42 145.849C417.077 111.91 461.398 61.6621 529.248 25.6021C660.017 -43.8978 786.898 40.7569 818.748 128.602C849.748 214.102 813.748 331.602 676.994 471.449C589.019 561.414 523.639 646.325 477.71 689.102C511.113 637.133 576.429 561.133 603.626 521.994C638.748 471.449 863.13 278.102 797.748 135.602C739.248 8.10205 608.58 0.996838 529.248 46.6021C465.783 83.0863 416.034 144.788 401.42 172.364C298.08 -34.451 125.248 16.8891 75.748 61.1021C-15.0693 142.219 21.8294 312.852 51.3367 366.471C53.703 370.17 56.1637 373.881 58.721 377.602Z" fill="#FF6C45"/>
<path d="M312.21 211.516C298.264 212.448 275.795 209.576 266.303 208.024C259.33 202.203 245.965 205.695 239.573 205.695C233.181 205.695 215.748 216.755 208.775 218.502C201.802 220.248 175.071 213.845 177.977 229.562C180.301 242.136 216.523 258.474 234.343 265.071C227.951 294.759 239.573 306.402 245.965 316.298C252.357 326.194 259.911 339 259.33 354.136C258.749 369.271 230.857 413.512 218.072 455.424C207.845 488.954 215.361 540.802 220.397 562.534C216.91 559.623 207.032 550.775 195.41 538.667C180.882 523.532 157.638 521.204 165.193 593.386C172.747 665.569 275.601 725.527 361.022 687.108C446.443 648.688 435.402 578.833 420.294 562.534C408.207 549.495 379.23 572.236 366.252 585.237L383.685 543.906C406.348 483.366 371.482 426.9 361.022 397.794C350.562 368.689 349.018 367.109 342.045 350.228C335.071 333.346 353.374 321.229 357.636 305.4C364.457 280.063 353.738 271.292 354.049 271.292C354.049 269.343 367.065 278.926 377.293 273.803C390.077 267.4 390.658 251.101 396.469 241.204C402.28 231.308 420.294 222.577 407.51 221.412C394.726 220.248 361.603 203.367 354.049 202.203C346.495 201.038 329.643 210.352 312.21 211.516Z" fill="#FCBD88"/>
<path d="M394.551 392.211C393.616 408.508 405.851 425.776 412.086 432.372C400.981 441.685 406.826 452.744 405.657 481.264C404.488 509.784 382.276 526.664 357.727 590.689C333.177 654.714 403.903 702.442 461.185 696.621C518.467 690.801 516.714 639.581 516.714 618.627C516.714 597.673 501.517 586.033 502.101 554.02C502.686 522.007 498.01 494.651 497.425 477.772C496.957 464.268 482.423 450.416 475.214 445.177L482.228 432.372C500.932 411.418 493.918 384.838 488.073 374.167C489.242 357.87 488.073 368.929 488.073 361.945C486.904 341.573 475.798 313.635 470.537 322.947C466.329 330.398 453.587 345.841 447.741 352.632C428.569 352.166 417.542 357.094 414.424 359.616C403.708 352.826 380.406 340.991 372.924 347.975C365.442 354.96 384.225 380.376 394.551 392.211Z" fill="#FF6C45"/>
<path d="M523.432 728.67H489.245V731.23C497.001 739.009 498.26 752.897 497.919 758.869V819.777C497.919 826.738 492.477 829.843 489.755 830.525V833.596H533.637V830.525C525.881 829.297 524.622 821.142 524.963 817.217L523.432 728.67Z" fill="#936764"/>
<path fill-rule="evenodd" clip-rule="evenodd" d="M233.183 754.759C246.661 748.147 257.647 748.382 265.919 751.332C274.172 754.275 279.68 759.905 282.254 764.023C284.337 767.356 285.437 772.67 285.985 777.881C286.534 783.115 286.535 788.338 286.365 791.555L286.34 792.028H241.943C241.363 800.922 245.134 806.935 249.862 810.815C254.696 814.781 260.524 816.512 263.708 816.757C265.244 816.875 267.056 816.492 268.983 815.741C270.903 814.993 272.903 813.893 274.804 812.615C278.619 810.051 281.958 806.821 283.419 804.387C284.028 803.372 284.505 802.715 284.883 802.347C285.066 802.168 285.275 802.009 285.508 801.945C285.634 801.911 285.78 801.901 285.929 801.946C286.079 801.992 286.193 802.083 286.276 802.182C286.425 802.362 286.482 802.591 286.508 802.768C286.536 802.959 286.541 803.173 286.532 803.387C286.515 803.816 286.443 804.307 286.356 804.742L286.35 804.776L286.338 804.809C284.987 808.693 281.058 817.819 276.144 823.144C273.052 826.493 266.026 831.468 257.152 833.319C248.247 835.177 237.49 833.886 227.02 824.693C216.552 815.502 211.33 801.349 212.095 787.843C212.86 774.327 219.625 761.41 233.183 754.759ZM253.362 758.942C250.131 759.072 247.511 759.914 245.433 761.374C243.355 762.834 241.851 764.888 240.814 767.385C238.747 772.359 238.505 779.146 239.264 786.732L239.309 787.183H261.878L261.946 786.763C262.708 782.111 263.22 775.14 262.262 769.361C261.783 766.475 260.929 763.834 259.513 761.93C258.078 760 256.067 758.834 253.362 758.942Z" fill="#936764"/>
<path fill-rule="evenodd" clip-rule="evenodd" d="M331.984 749.21C345.476 747.682 354.316 751.245 360.103 756.004C365.875 760.749 368.562 766.643 369.832 769.692C371.123 772.791 372.263 778.91 373.019 785.529C373.778 792.166 374.159 799.383 373.905 804.716C373.655 809.976 374.159 814.2 375.017 816.899C375.45 818.258 375.955 819.174 376.45 819.656C376.692 819.892 376.91 820.001 377.094 820.034C377.269 820.065 377.463 820.036 377.688 819.901C378.205 819.591 378.783 818.897 379.398 817.846C380.003 816.812 380.608 815.497 381.203 814.025C382.393 811.08 383.522 807.569 384.534 804.533C384.789 803.769 385.074 803.192 385.425 802.877C385.613 802.707 385.857 802.581 386.143 802.593C386.423 802.604 386.65 802.743 386.818 802.902C387.138 803.205 387.387 803.714 387.59 804.284C387.8 804.874 387.987 805.606 388.147 806.424C388.786 809.683 389.044 814.536 388.529 817.884C388.017 821.212 387.115 823.806 385.68 826.024C384.247 828.24 382.3 830.049 379.746 831.837L379.673 831.888L379.587 831.911C370.899 834.21 363.464 833.066 357.996 830.493C352.556 827.933 349.004 823.924 348.2 820.442C347.596 817.826 346.989 816.643 346.55 816.186C346.344 815.973 346.231 815.975 346.214 815.976C346.19 815.978 346.135 815.995 346.067 816.081C345.216 817.44 343.752 819.61 342.096 821.746C340.452 823.864 338.59 825.988 336.931 827.247C336.537 827.759 335.78 828.353 334.809 828.955C333.774 829.596 332.44 830.284 330.903 830.934C327.832 832.235 323.919 833.401 319.915 833.754C315.914 834.106 311.78 833.647 308.31 831.647C304.824 829.637 302.07 826.105 300.782 820.44C298.209 809.119 302.857 801.117 309.341 795.853C315.796 790.612 324.089 788.061 328.962 787.548C338.455 786.548 343.414 783.556 345.361 782.095C345.509 781.985 345.711 781.718 345.913 781.246C346.109 780.787 346.285 780.185 346.414 779.468C346.672 778.034 346.735 776.181 346.428 774.185C345.814 770.198 343.734 765.679 338.846 762.746C336.364 761.257 334.412 760.678 332.885 760.728C331.385 760.778 330.239 761.437 329.343 762.565C328.431 763.712 327.776 765.349 327.318 767.325C326.862 769.295 326.611 771.565 326.486 773.946C326.073 781.792 321.829 785.568 319.622 786.488L319.592 786.501L319.561 786.51C313.815 788.076 306.515 786.493 301.849 778.718C299.432 774.687 300.302 768.024 305.04 762.069C309.803 756.083 318.51 750.735 331.984 749.21ZM344.953 789.02C341.138 788.868 335.763 789.4 331.167 791.487C326.24 793.724 322.166 797.776 321.957 804.677C321.829 808.906 322.66 811.985 324.117 814.117C325.581 816.258 327.645 817.397 329.873 817.796C332.09 818.193 334.467 817.86 336.603 817.08C338.739 816.3 340.672 815.061 341.996 813.604C343.077 812.414 343.883 810.673 344.485 808.686C345.09 806.691 345.505 804.402 345.78 802.077C346.331 797.427 346.33 792.58 346.161 789.531L346.137 789.089L345.695 789.059L344.953 789.02Z" fill="#936764"/>
<path d="M403.731 820.527C403.328 826.984 398.182 830.28 395.66 831.12V833.138H440.556V831.12C432.081 831.12 429.627 824.058 429.458 820.527V786.224C436.016 776.64 441.061 771.595 445.096 766.551C449.132 761.506 458.716 761.506 455.185 775.126C451.654 788.747 463.257 794.296 472.337 792.278C481.417 790.26 489.488 767.055 472.337 758.48C455.185 749.904 446.105 758.984 442.07 762.515C438.841 765.34 432.317 774.454 429.458 778.658V754.948H396.165V756.966C401.007 759.388 403.227 769.409 403.731 774.117C403.9 786.897 404.135 814.07 403.731 820.527Z" fill="#936764"/>
<path d="M586.868 760.955L542.477 761.964V764.486C546.916 768.522 551.725 775.92 553.575 779.115L572.744 816.949C578.125 826.029 588.684 844.694 587.877 846.712C580.815 861.845 569.213 864.872 567.195 862.854C565.177 860.836 563.664 857.305 567.195 848.729C570.726 840.154 566.69 832.587 556.097 831.578C545.503 830.569 541.468 839.649 541.468 843.181C541.468 846.712 544.999 868.908 565.681 866.89C582.227 865.275 592.081 852.092 594.94 845.703C600.657 830.906 613.402 798.587 618.649 787.691C623.895 776.795 634.287 767.681 638.827 764.486V760.955H602.002V764.486C606.542 767.008 610.073 777.602 610.073 782.142C610.073 786.682 607.551 814.427 602.002 814.427C596.453 814.427 588.886 794.249 586.868 786.178C585.254 779.721 586.196 766.672 586.868 760.955Z" fill="#936764"/>
<path d="M162.394 726.623C169.597 726.623 180.938 727.393 190.495 731.677C195.28 733.822 199.638 736.857 202.8 741.136C205.966 745.421 207.911 750.924 207.911 757.96C207.911 772.054 200.596 780.559 191.484 785.432C182.412 790.284 171.553 791.544 164.31 791.224V791.225H141.821V815.78C141.821 821.442 143.692 824.741 145.949 826.596C148.225 828.466 150.963 828.925 152.773 828.773L152.795 828.771H159.062V833.626H97.7197V829.735H103.009C106.992 829.735 109.645 827.473 111.366 824.56C113.096 821.634 113.848 818.101 114.004 815.747C114.643 795.818 115.918 753.515 115.918 743.505C115.918 738.64 114.067 735.656 111.8 733.876C109.51 732.079 106.751 731.477 104.925 731.477H97.7197V726.623H162.394ZM142.524 730.608L142.517 731.099L141.556 787.688L141.547 788.209L142.068 788.196C148.365 788.035 157.813 786.442 165.706 782.166C173.615 777.881 180.016 770.863 180.016 759.881C180.016 753.11 178.804 747.869 176.687 743.824C174.566 739.773 171.55 736.947 167.99 734.986C160.9 731.08 151.652 730.608 143.017 730.608H142.524Z" fill="#936764"/>
<path d="M46.721 349.102C131.954 516.81 212.628 665.049 216.813 669.376C143.721 623.102 59.7485 403.602 21.2483 308.602C12.1288 286.1 31.2202 318.602 46.721 349.102Z" fill="#FCBD88"/>
</svg>
